<svg xmlns="http://www.w3.org/2000/svg" xmlns:xlink="http://www.w3.org/1999/xlink" width="100" height="100" viewBox="0 0 100 100"><g transform="translate(50 50) scale(-0.69 0.69) rotate(0) translate(-50 -50)" style="fill:#343a40"><svg fill="#343a40" xmlns="http://www.w3.org/2000/svg" data-name="Layer 1" viewBox="0 0 93.89 96" x="0px" y="0px"><title>08</title><polygon points="78.55 62.61 63.94 54.38 62.89 73.93 75.87 83.43 78.55 62.61"></polygon><path d="M80.62,23.51c-2.57-1.84-4.8-2.29-6.66-1.31-3.93,2.07-6,10.46-5.81,23l14.72,8.7C83.76,49.5,87.47,28.43,80.62,23.51Z" transform="translate(-3.05 -2)"></path><path d="M76.51,12.75c-9.94.3-13.07,8.74-14,13.22a22.22,22.22,0,0,0-1-2.49c1-5.7,3.86-7.74,3.86-7.74a27.7,27.7,0,0,0-9-8.61l-4.63,8.13a20.1,20.1,0,0,1,7,6.49A20.83,20.83,0,0,1,62,30.51l-.19,4.43H60.19a22.41,22.41,0,0,0-1.64-8.2,19.34,19.34,0,0,0-8.07-9.28l1.08-1.9-1.32-.75-1.1,1.94a27.5,27.5,0,0,0-11.88-2.33A21.07,21.07,0,0,0,26,17.33l-1.29-2.26A28.11,28.11,0,0,1,38,12.15h.08a29,29,0,0,1,12.33,2.43L55,6.38A38.29,38.29,0,0,0,38,2C30.25,2,24.15,3.47,19.37,5.75l5.17,9.09-1.32.75,1.48,2.6A18.8,18.8,0,0,0,19,25.27a22.66,22.66,0,0,0-2.1,8.83H13.85v1.52H3.18c.19,6.14.58,15.09,1,23.39H15L13.89,35.62h3s0,0,0,.06L17.41,56,15,59,15,60.64l2.42-3,.38,14.91-1.78,6.27a.71.71,0,0,1-.21-.46L15,60.53H4.21c.36,7.78.71,14.81.87,18.13a2.12,2.12,0,0,0,2.14,2l9.7-.07,0-.05H59.45a2.22,2.22,0,0,0,1.6-.68,20.61,20.61,0,0,0,3.08,3.8L82.64,97.24a4,4,0,0,0,1.28.62c1.44-10.72,6.15-46.18,7-57.45C92,24.34,87.44,15.42,76.51,12.75ZM44,53.63a13.39,13.39,0,0,1-.65,3.3,5.7,5.7,0,0,1-4.55,1.63,4.71,4.71,0,0,1-3.19-1,4.76,4.76,0,0,1,1-1.14,14.56,14.56,0,0,0,2.21-2.17,7.25,7.25,0,0,0,1.48-5.6c-.44-3-1.11-8.79-1.69-14A5.81,5.81,0,0,0,41,35a9.43,9.43,0,0,0,3.27-.65C44.3,41.32,44.33,49.69,44,53.63Zm.17-20.85c-4,1.67-5.63.06-5.74,0-.24-2.18-.46-4.18-.62-5.77A28.41,28.41,0,0,0,42,27a12.43,12.43,0,0,1,2.08.06C44.13,28.62,44.16,30.59,44.19,32.78Zm10.39-5.16c-.14,1.36-.34,3.14-.55,5.12h0s-1.72,1.73-5.73,0c0-1.95.06-3.73.09-5.2A20.89,20.89,0,0,0,54.58,27.62Zm-6.12,26c-.31-3.94-.28-12.31-.2-19.23a9.43,9.43,0,0,0,3.27.65,5.8,5.8,0,0,0,2.29-.44c-.59,5.34-1.31,11.49-1.77,14.51a6,6,0,0,0,.9,4.22,13.35,13.35,0,0,0,2.87,3.07,4.76,4.76,0,0,1,1,1.14,4.71,4.71,0,0,1-3.19,1,5.7,5.7,0,0,1-4.55-1.63A13.39,13.39,0,0,1,48.46,53.63Zm11.27,3.75,1.07,1.27c-.27,6.51-.53,12.67-.71,16.79l-.77-2.61Zm2-20.92c-.22,5.33-.53,12.74-.84,20L59.79,55.1,60.24,38q0-.76,0-1.53Zm-3,1.51-.49,18.7q-.22-.23-.49-.47a6.62,6.62,0,0,0-1-1,11.87,11.87,0,0,1-2.55-2.71,4.53,4.53,0,0,1-.67-3.16c.73-4.8,2.1-17.41,2.61-22.27a4,4,0,0,0,.66-.43c.11.24.23.46.34.71C58.61,30.61,58.73,34.24,58.73,38Zm-38.35-12a17.6,17.6,0,0,1,4.18-5.64l-.68,5.36a11.22,11.22,0,0,1,5.41,0,47.78,47.78,0,0,0,7,1.19c.6,5.65,1.86,17.2,2.56,22a5.73,5.73,0,0,1-1.16,4.43,13.09,13.09,0,0,1-2,1.94,6.62,6.62,0,0,0-1,1c-2.57,2.27-2.35,4.81-1.63,6.11,1,1.75,3.9,1.65,5.84,1.15A6.38,6.38,0,0,0,41.62,62l.15-.11c1.52-1.22,3.41-3.64,3.77-8.19.44-5.64.22-19.73.09-26.51l1.25.16c-.14,6.84-.35,20.76.09,26.35.35,4.55,2.24,7,3.77,8.19l.14.11a6.38,6.38,0,0,0,2.67,1.42,7.76,7.76,0,0,0,4.52,0l-.22,8.46H19.34l-.93-36.25A21.47,21.47,0,0,1,20.37,25.92ZM38.19,73.4V79H26.51L28,73.4Zm1.52,0h9.18l2,5.64H39.7Zm-20.53,0h7.29L24.94,79H17.58ZM52.45,79l-2-5.64h7.43L59.58,79l-.13,0Zm27.42,8.58L64.7,76.52l1.19-22.16,17,9.59Zm3.85-31.78L67,45.95v-.34c-.29-13.45,2-22.14,6.45-24.48,1.58-.83,4.23-1.26,7.93,1.4,8.28,6,2.81,31.42,2.57,32.5Zm1.56,6.32a1.79,1.79,0,1,1,1.37-1.74A1.59,1.59,0,0,1,85.28,62.16Z" transform="translate(-3.05 -2)"></path><path d="M81.06,13.09c8.43,4,12.05,13.06,11,27.41-.81,11.29-5.52,46.75-7,57.5a3.81,3.81,0,0,0,1.36-.3c1.21-.52,3.68-1.35,3.73-2.59L96,48.43c.09-1.14,1-10.63,1-11.77C97,27.45,93,15.3,81.06,13.09Z" transform="translate(-3.05 -2)"></path><path d="M17.28,21.76a20.13,20.13,0,0,1,6.08-5.94L18,6.43C6.21,12.75,3.18,24.1,3.06,28.8c0,1,0,2.86.07,5.31h10.7A21.38,21.38,0,0,1,17.28,21.76Z" transform="translate(-3.05 -2)"></path></svg></g></svg>