<svg xmlns="http://www.w3.org/2000/svg" xmlns:xlink="http://www.w3.org/1999/xlink" width="100" height="100" viewBox="0 0 100 100"><g transform="translate(50 50) scale(-0.69 0.69) rotate(0) translate(-50 -50)" style="fill:#343a40"><svg fill="#343a40" xmlns="http://www.w3.org/2000/svg" data-name="Layer 1" viewBox="0 0 93.91 96" x="0px" y="0px"><title>08</title><path d="M90.23,17.89a17.85,17.85,0,0,0-11.75-5.23l-.1,0a.59.59,0,0,0-.38,0c-.43,0-.85,0-1.29,0a13.63,13.63,0,0,0-10.44,4.3c-.15-.29-.36-.63-.64-1a27.92,27.92,0,0,0-9.59-9,.38.38,0,0,0-.26-.15A39,39,0,0,0,38.16,2c-8.1,0-14.42,1.61-19.32,4.08l-.06,0,0,0C6.62,12.28,3.19,23.7,3.05,29c-.14,5.7,1.49,39.16,2,49.28C5.13,79.92,7,80,8.13,80H60.34a.58.58,0,0,0,.16,0,21.65,21.65,0,0,0,3,3.68l.08.07,18.28,13.4a4.51,4.51,0,0,0,2,.82A.58.58,0,0,0,84,98h.08l.15,0,.31,0a4.37,4.37,0,0,0,1.72-.35l.49-.2c1.47-.6,3.49-1.43,3.55-2.83L96,48.49c0-.33.12-1.35.24-2.66.29-3.26.74-8.18.75-9C97,29.3,94.52,22.22,90.23,17.89Zm-25.6-1.39a10,10,0,0,1,.79,1.39,20.5,20.5,0,0,0-3.53,7.62,21,21,0,0,0-2.14-4.15,21.29,21.29,0,0,0-7.53-6.87l3.62-6.36A26.71,26.71,0,0,1,64.63,16.51ZM52.31,78.82l-2-5.87h7.66l1.74,5.87Zm-34.53,0L19.45,73H27l-1.58,5.87ZM4.36,35.65H13L14.07,59H5.32C4.94,50.68,4.55,41.73,4.36,35.65ZM17.56,22a20,20,0,0,1,6.18-6l1.47,2.58-.52.41-.07.06a18.58,18.58,0,0,0-5.09,6.56,22.26,22.26,0,0,0-2.07,8.81H14.14A21.28,21.28,0,0,1,17.56,22Zm20.56-9.56h.08A28.6,28.6,0,0,1,50.58,15l-1.38,2.42A26.85,26.85,0,0,0,37.42,15,20.56,20.56,0,0,0,26.21,18l-1.43-2.51A27.8,27.8,0,0,1,38.12,12.47ZM61.31,29,61,35.28H59.92a22.2,22.2,0,0,0-1.61-8.19c-.15-.33-.31-.64-.46-1a.57.57,0,0,0-.05-.11,18.58,18.58,0,0,0-7.52-8.1l1.38-2.43a20.2,20.2,0,0,1,9.67,12,.59.59,0,0,0,.13.22C61.34,28.48,61.31,28.93,61.31,29Zm-3.43,42.8H19.58l-.93-35.94a21.35,21.35,0,0,1,2-9.66A17.72,17.72,0,0,1,24.22,21l-.61,4.83a.6.6,0,0,0,.76.65,10.5,10.5,0,0,1,5,0,48.3,48.3,0,0,0,7.29,1.22c.28,2.64,1.63,15.36,2.46,21.11A5.81,5.81,0,0,1,38,53.33a6.69,6.69,0,0,1-1.44,1,12.48,12.48,0,0,0-1.51,1h0c-3.43,2.64-3,5.75-2.21,7.17s2.27,1.76,3.89,1.76a10.36,10.36,0,0,0,2.55-.34c5.69-1.47,6-8.49,6-8.9.51-6.52.11-23.25,0-26.9l1.25.16.43.05c0,3.21-.21,20.07.31,26.69,0,.42.36,7.43,6,8.9a10.39,10.39,0,0,0,2.54.33,6.23,6.23,0,0,0,2.21-.36Zm-39.49.52L16.58,78.7a.84.84,0,0,1-.44-.69l-.81-17.55a.58.58,0,0,0,.31-.17L18,57.65ZM14.3,35.65h3.15c0,.07,0,.13,0,.2L18,55.91l-2.72,3L14.19,35.65ZM37.42,16.22c9.34,0,15.62,3.29,19.16,10a3.6,3.6,0,0,1-1.44.85l0,0c-2.18.71-5.55.27-8.39-.09l-1.77-.22a.55.55,0,0,0-.26-.05l-.07,0a14.28,14.28,0,0,0-2.53-.1,46.65,46.65,0,0,1-12.36-1.33,11.38,11.38,0,0,0-4.8-.18l.67-5.31C28.3,17.76,32.1,16.22,37.42,16.22ZM52.05,28.71a13.14,13.14,0,0,0,2.56-.22c-.1.93-.27,2.56-.49,4.53a.57.57,0,0,0-.08.08s-1.51,1.88-5.9-.19h0c0-2,0-3.63,0-4.47A33.71,33.71,0,0,0,52.05,28.71Zm-3.57,26.1c-.35-4.63-.38-14.18-.35-20.6a9.42,9.42,0,0,0,3.68.88A4.67,4.67,0,0,0,54,34.61c-.55,4.94-1.27,11.25-1.78,14.54A5.81,5.81,0,0,0,53,53.21a8.74,8.74,0,0,0,2.28,1.91c.46.31.92.64,1.34,1a1.06,1.06,0,0,1-.16.76c-.38.57-1.42.92-2.91,1A4.94,4.94,0,0,1,48.48,54.81ZM53.65,59c1.95-.1,3.25-.62,3.86-1.55a2.19,2.19,0,0,0,.23-.46,6,6,0,0,1,.52.63l-.13,4.83c-1.13.72-3.12.57-4.48.22-2.84-.74-4.12-3.25-4.69-5.23A6.24,6.24,0,0,0,53.65,59Zm5.12-20.92L58.3,55.91a9.19,9.19,0,0,0-.73-.64h0c-.49-.39-1-.76-1.56-1.12a8.78,8.78,0,0,1-2-1.58,4.62,4.62,0,0,1-.68-3.23c.83-5.4,2.25-18.87,2.5-21.22a4.77,4.77,0,0,0,1.26-.73l.09.19C58.65,30.81,58.77,34.42,58.77,38.12ZM34.84,57a2.19,2.19,0,0,0,.23.46c.61.93,1.91,1.46,3.86,1.55a6.24,6.24,0,0,0,4.71-1.57c-.57,2-1.85,4.49-4.7,5.23-1.94.5-4.37.45-5.09-.85A4.13,4.13,0,0,1,34.84,57Zm4.15.82c-1.49-.08-2.52-.43-2.91-1a1.06,1.06,0,0,1-.17-.76,14.09,14.09,0,0,1,1.21-.75,6.73,6.73,0,0,0,1.78-1.26,7,7,0,0,0,1.43-5.42c-.5-3.4-1.17-9.27-1.7-14a4.65,4.65,0,0,0,2.19.5,9.07,9.07,0,0,0,3.42-.77c.11,6.53.2,15.92-.15,20.44A4.94,4.94,0,0,1,39,57.85Zm5.23-24.78c-4.19,1.89-5.62.12-5.68,0a.57.57,0,0,0-.08-.08c-.25-2.31-.45-4.2-.56-5.18a28.8,28.8,0,0,0,4.27,0,11.78,11.78,0,0,1,1.93.06C44.13,28.82,44.17,30.69,44.22,33.07ZM28.19,73h10.3v5.87H26.61Zm11.49,0H49l2,5.87H39.68Zm19.37-.4.39-14.75a.58.58,0,0,0,0-.47v-.45l.64.75c-.26,6.1-.5,12-.68,16.16Zm1.12-16.68-.66-.79L60,38.14c0-.55,0-1.11,0-1.66h1C60.78,41.65,60.48,48.83,60.18,55.87ZM38.17,3.2A37.6,37.6,0,0,1,54.8,7.54l-3.64,6.4a29.47,29.47,0,0,0-13-2.67h-.08a28.76,28.76,0,0,0-13.91,3.16L19.92,6.89C24.6,4.65,30.58,3.2,38.17,3.2ZM4.25,29.08c.13-5,3.33-15.7,14.6-21.64L23.17,15a21.25,21.25,0,0,0-6.6,6.34,22.48,22.48,0,0,0-3.63,13.09H4.33C4.26,32,4.23,30.08,4.25,29.08ZM8.39,78.82c-1.1,0-2.11-.05-2.14-.56-.18-3.71-.52-10.56-.87-18h8.74l.82,17.82a2.05,2.05,0,0,0,.19.76Zm56,4c-3-3.07-3.9-4.79-3.8-7,.38-8.84,1.21-28.87,1.66-39.62a.58.58,0,0,0,.07-.27.59.59,0,0,0-.05-.24L62.5,29a20.43,20.43,0,0,1,3.85-10.48.58.58,0,0,0,.14-.12.73.73,0,0,0,.13-.21,12.57,12.57,0,0,1,10.08-4.41c.52,0,1,0,1.52.05,9.21,3.26,13.18,12,12.13,26.68-.87,12.2-6,50.59-6.79,56.12a3.31,3.31,0,0,1-1-.49ZM95,45.72c-.12,1.32-.21,2.35-.23,2.65L89.12,94.51c0,.68-1.91,1.45-2.81,1.82l-.51.21a3.15,3.15,0,0,1-1,.24c.76-5.63,5.92-44,6.79-56.17.93-13-2-21.56-8.9-26a16.07,16.07,0,0,1,6.72,4.08c4.07,4.11,6.45,10.86,6.37,18.07C95.75,37.59,95.29,42.68,95,45.72Z" transform="translate(-3.05 -2)"></path><path d="M83.13,55.38a.6.6,0,0,0,.35-.42c.23-1.07,5.63-26.22-2.54-32.1-3.65-2.62-6.27-2.2-7.83-1.38-4.39,2.31-6.65,10.9-6.37,24.18a.6.6,0,0,0,.29.5l15.55,9.19a.6.6,0,0,0,.54,0Zm-.66-1.49L67.93,45.3c-.23-12.43,1.86-20.72,5.73-22.76,1.83-1,4-.53,6.57,1.29C87,28.7,83.33,49.5,82.47,53.89Z" transform="translate(-3.05 -2)"></path><path d="M82.15,63.58l-15.61-8.8a.6.6,0,0,0-.89.49l-1.1,20.59a.6.6,0,0,0,.24.51L78.67,86.55a.6.6,0,0,0,.95-.41l2.82-22A.6.6,0,0,0,82.15,63.58ZM78.56,85,65.75,75.6l1-19.31,14.42,8.13Z" transform="translate(-3.05 -2)"></path><path d="M84.83,62.6a2.35,2.35,0,1,0-1.95-2.31A2.16,2.16,0,0,0,84.83,62.6Zm0-3.43c.41,0,.75.51.75,1.12s-.34,1.12-.75,1.12-.75-.51-.75-1.12S84.43,59.17,84.83,59.17Z" transform="translate(-3.05 -2)"></path></svg></g></svg>